<?xml version="1.0" standalone="no"?>
<!DOCTYPE svg PUBLIC "-//W3C//DTD SVG 20010904//EN"
 "http://www.w3.org/TR/2001/REC-SVG-20010904/DTD/svg10.dtd">
<svg version="1.0" xmlns="http://www.w3.org/2000/svg"
 width="1600.000000pt" height="401.000000pt" viewBox="0 0 1600.000000 401.000000"
 preserveAspectRatio="xMidYMid meet">

<g transform="translate(0.000000,401.000000) scale(0.100000,-0.100000)"
fill="#000000" stroke="none">
<path d="M10380 2851 c-186 -41 -329 -116 -462 -240 -169 -158 -265 -348 -285
-561 -27 -291 71 -548 286 -752 164 -156 338 -230 591 -253 84 -8 232 7 325
32 83 22 235 94 309 147 68 48 176 159 223 227 45 65 98 174 123 254 30 95 39
316 16 422 -71 338 -346 625 -681 714 -117 30 -330 35 -445 10z m387 -359
c221 -84 363 -293 363 -532 0 -161 -60 -301 -180 -421 -118 -118 -221 -155
-407 -147 -212 10 -367 109 -459 293 -47 96 -64 164 -64 269 0 104 19 184 65
275 62 124 186 233 304 268 117 34 281 32 378 -5z"/>
<path d="M13355 2850 c-316 -72 -485 -261 -485 -540 0 -264 130 -391 506 -495
422 -118 487 -144 518 -209 81 -172 -131 -263 -479 -205 -132 22 -376 120
-420 169 -10 11 -23 20 -29 20 -6 0 -49 -73 -95 -162 -95 -186 -98 -163 29
-227 219 -110 449 -163 705 -163 277 0 463 61 592 194 63 65 99 133 118 224
39 183 -5 347 -121 453 -91 83 -271 158 -544 226 -281 70 -359 108 -380 186
-21 75 14 138 99 178 52 24 66 26 196 26 113 -1 154 -5 210 -22 108 -32 168
-57 245 -101 l70 -41 14 22 c42 68 146 281 143 291 -13 33 -295 147 -437 176
-129 26 -340 26 -455 0z"/>
<path d="M2445 2818 c-9 -24 -164 -380 -345 -793 -180 -412 -348 -797 -373
-855 l-45 -105 196 -3 c108 -1 201 -1 207 2 6 2 50 96 99 210 l89 206 352 0
351 0 58 -137 c32 -76 72 -171 89 -210 l31 -73 203 0 c112 0 203 3 203 6 0 7
-62 151 -340 789 -162 372 -367 844 -409 942 l-26 63 -161 0 -162 0 -17 -42z
m313 -723 l120 -270 -129 -3 c-71 -1 -187 -1 -258 0 l-128 3 56 120 c31 67 73
157 93 200 94 204 111 236 118 228 5 -4 62 -129 128 -278z"/>
<path d="M4680 2855 c0 -2 158 -205 350 -450 193 -246 352 -450 353 -454 2 -6
-298 -397 -636 -828 l-49 -63 214 0 214 0 234 306 c224 293 234 305 249 285 9
-11 115 -148 236 -305 l220 -285 208 -1 c164 0 207 3 201 13 -4 6 -150 196
-323 420 -174 225 -324 419 -334 432 -17 23 -17 24 271 391 158 203 318 408
355 457 l69 87 -210 0 -210 0 -244 -314 c-134 -173 -247 -315 -253 -315 -5 0
-120 141 -254 314 l-244 315 -209 0 c-114 0 -208 -2 -208 -5z"/>
<path d="M8163 2808 l-73 -51 0 -739 c0 -407 4 -738 8 -736 4 2 109 86 233
188 l226 185 -154 3 -153 3 0 599 c0 330 -3 600 -7 600 -5 -1 -41 -24 -80 -52z"/>
<path d="M7723 2457 l-222 -182 147 -5 147 -5 5 -611 5 -612 72 57 72 56 1
743 c0 408 -1 742 -2 742 -2 -1 -103 -83 -225 -183z"/>
</g>
</svg>
